<?xml version="1.0" encoding="iso-8859-1"?>
<!-- Generator: Adobe Illustrator 19.0.0, SVG Export Plug-In . SVG Version: 6.00 Build 0)  -->
<svg version="1.1" id="Capa_1" xmlns="http://www.w3.org/2000/svg" xmlns:xlink="http://www.w3.org/1999/xlink" x="0px" y="0px"
	 viewBox="0 0 512 512" style="enable-background:new 0 0 512 512;" xml:space="preserve">
<polygon style="fill:#EF7F4A;" points="384,300.788 512,198.524 335.108,172.821 312.602,172.821 256,12.53 303.022,425.194 
	414.217,499.47 384,323.294 "/>
<g>
	<polygon style="fill:#E8A44D;" points="347.728,311.508 439.455,222.095 312.69,203.676 256,12.53 176.892,172.821 
		176.892,195.326 0,198.524 128,323.294 150.506,323.294 97.783,499.47 256,416.291 256,393.785 303.022,425.194 369.382,437.76 	
		"/>
	<polygon style="fill:#E8A44D;" points="512,198.524 439.455,222.095 347.728,277.749 347.728,311.508 384,323.294 	"/>
</g>
<polygon style="fill:#FFCB61;" points="439.455,222.095 256,281.704 347.728,311.508 "/>
<polygon style="fill:#E8A44D;" points="256,12.53 278.932,203.676 312.69,203.676 335.108,172.821 "/>
<polygon style="fill:#FFCB61;" points="256,12.53 256,281.704 312.691,203.676 "/>
<polygon style="fill:#E8A44D;" points="369.382,437.76 278.505,382.533 256,416.291 414.217,499.47 "/>
<g>
	<polygon style="fill:#FFCB61;" points="369.382,437.759 256,281.704 256,416.291 	"/>
	<polygon style="fill:#FFCB61;" points="128,323.294 97.783,499.47 256,281.704 	"/>
	<polygon style="fill:#FFCB61;" points="176.892,172.821 0,198.524 256,281.704 	"/>
</g>
<g>
</g>
<g>
</g>
<g>
</g>
<g>
</g>
<g>
</g>
<g>
</g>
<g>
</g>
<g>
</g>
<g>
</g>
<g>
</g>
<g>
</g>
<g>
</g>
<g>
</g>
<g>
</g>
<g>
</g>
</svg>
