<?xml version="1.0" encoding="iso-8859-1"?>
<!-- Generator: Adobe Illustrator 19.0.0, SVG Export Plug-In . SVG Version: 6.00 Build 0)  -->
<svg version="1.1" id="Layer_1" xmlns="http://www.w3.org/2000/svg" xmlns:xlink="http://www.w3.org/1999/xlink" x="0px" y="0px"
	 viewBox="0 0 511.999 511.999" style="enable-background:new 0 0 511.999 511.999;" xml:space="preserve">
<g>
	<g>
		<rect x="248.091" width="15.747" height="47.24"/>
	</g>
</g>
<g>
	<g>
		<rect x="223.946" y="160.615" width="64.036" height="15.747"/>
	</g>
</g>
<g>
	<g>
		<path d="M304.78,103.927V64.036h-40.941v-8.398h-15.747v8.398h-40.941v39.891h-7.348v15.747h112.326v-15.747H304.78z
			 M289.033,103.927h-66.136V79.783h66.136V103.927z"/>
	</g>
</g>
<g>
	<g>
		<path d="M311.078,185.429v-41.61h16.796v-15.747H184.056v15.747h16.796v41.61c-67.562,23.398-112.547,86.38-112.547,158.524
			c0,44.898,17.44,87.095,49.108,118.822c31.685,31.743,73.849,49.225,118.726,49.225c44.863,0,86.98-17.484,118.593-49.232
			c31.573-31.708,48.961-73.904,48.961-118.815C423.692,271.822,378.678,208.837,311.078,185.429z M211.047,198.658l5.551-1.713
			v-53.126h78.733v53.125l5.551,1.713c22.25,6.868,41.959,18.401,58.213,33.342H152.861
			C169.106,217.057,188.807,205.522,211.047,198.658z M138.039,247.746h235.889c2.221,2.725,4.349,5.524,6.374,8.398H131.67
			C133.693,253.27,135.82,250.471,138.039,247.746z M121.978,271.891h268.026c7.434,13.905,12.737,29.061,15.567,45.012
			l-77.795-21.217l-72.078,24.026l-88.096-24.026l-61.022,20.34C109.443,300.396,114.685,285.541,121.978,271.891z M363.572,451.657
			c-28.636,28.758-66.79,44.595-107.434,44.595c-43.597,0-82.963-18.468-110.717-48.001H366.85
			C365.775,449.4,364.686,450.538,363.572,451.657z M379.75,432.506H132.487c-2.196-3.067-4.283-6.218-6.251-9.448h259.753
			C384.035,426.278,381.95,429.426,379.75,432.506z M394.289,407.312h-276.43c-3.979-8.674-7.169-17.783-9.474-27.236l59.673-19.891
			l88.096,24.026l72.078-24.026l75.297,20.536C401.281,389.881,398.176,398.77,394.289,407.312z M327.775,343.738l-72.078,24.026
			l-88.096-24.026l-62.166,20.721c-0.906-6.709-1.384-13.554-1.384-20.507c0-3.563,0.128-7.099,0.367-10.608l63.639-21.213
			l88.096,24.026l72.078-24.026l79.377,21.648c0.219,3.366,0.337,6.757,0.337,10.172c0,7.174-0.5,14.269-1.462,21.252
			L327.775,343.738z"/>
	</g>
</g>
<g>
	<g>
		<rect x="248.091" y="287.638" width="15.747" height="15.747"/>
	</g>
</g>
<g>
	<g>
		<rect x="159.91" y="375.818" width="15.747" height="15.747"/>
	</g>
</g>
<g>
	<g>
		<rect x="319.475" y="375.818" width="16.796" height="15.747"/>
	</g>
</g>
<g>
	<g>
		<rect x="248.091" y="199.457" width="15.747" height="15.747"/>
	</g>
</g>
<g>
	<g>
		<rect x="248.091" y="463.999" width="15.747" height="15.747"/>
	</g>
</g>
<g>
</g>
<g>
</g>
<g>
</g>
<g>
</g>
<g>
</g>
<g>
</g>
<g>
</g>
<g>
</g>
<g>
</g>
<g>
</g>
<g>
</g>
<g>
</g>
<g>
</g>
<g>
</g>
<g>
</g>
</svg>
