<?xml version="1.0" encoding="UTF-8" standalone="no"?>

<svg
  width="73.797844mm"
  height="100.40726mm"
  viewBox="0 0 73.797844 100.40726">
  <g
    transform="translate(-24.333219,-55.540419)">
    <g
      transform="matrix(0.26458333,0,0,0.26458333,2.1865363,39.795594)">
      <polygon
        style="fill:#39b28a"
        points="83.704,397 362.625,397 295.495,283 150.834,283 "/>
      <polyline
        style="fill:#2a936d"
        points="317.239,319.58 295.495,283 151,283   "/>
      <polygon
        style="fill:#39b28a"
        points="295.495,283 328.588,283 270.912,186 237.82,186 208.51,186 175.417,186 117.741,283 150.834,283 "/>
      <polyline
        style="fill:#2a936d"
        points="289.306,216.92 270.912,186 237.82,186 208.51,186 175,186   "/>
      <polygon
        style="fill:#39b28a"
        points="297.859,186 223.165,59.508 148.47,186 175.417,186 208.51,186 237.82,186 270.912,186 "/>
      <rect
        style="fill:#846f5e"
        x="194"
        y="397"
        width="53"
        height="42"/>
      <polyline
        style="fill:#6d5848"
        points="194,397 247,397 247,439  "/>
    </g>
  </g>
</svg>
