<?xml version="1.0" encoding="iso-8859-1"?>
<!-- Generator: Adobe Illustrator 19.0.0, SVG Export Plug-In . SVG Version: 6.00 Build 0)  -->
<svg version="1.1" id="Capa_1" xmlns="http://www.w3.org/2000/svg" xmlns:xlink="http://www.w3.org/1999/xlink" x="0px" y="0px"
	 viewBox="0 0 512.001 512.001" style="enable-background:new 0 0 512.001 512.001;" xml:space="preserve">
<path style="fill:#FED456;" d="M256.001,52.445c-33.229,0-60.166,27.112-60.166,60.556s26.937,60.556,60.166,60.556
	s60.165-27.112,60.165-60.556C316.167,79.557,289.23,52.445,256.001,52.445z M256.001,139.133c-14.339,0-25.964-11.7-25.964-26.132
	s11.624-26.132,25.964-26.132c14.339,0,25.963,11.7,25.963,26.132C281.964,127.434,270.34,139.133,256.001,139.133z"/>
<path style="fill:#FF9F3D;" d="M448.133,379.709c11.663,20.331,4.742,46.329-15.459,58.067
	c-20.199,11.738-46.029,4.773-57.693-15.559c-11.663-20.33-4.741-46.329,15.459-58.067
	C410.642,352.411,436.471,359.378,448.133,379.709z"/>
<path style="opacity:0.1;fill:#1E004C;enable-background:new    ;" d="M391.97,405.228c-7.641-13.319-7.304-29.07-0.483-41.652
	c-0.349,0.19-0.701,0.372-1.046,0.573c-20.2,11.739-27.122,37.737-15.459,58.067c11.664,20.332,37.494,27.297,57.693,15.559
	c6.967-4.048,12.353-9.793,15.943-16.416C428.58,432.27,403.434,425.211,391.97,405.228z"/>
<path style="fill:#FF9F3D;" d="M489.093,341.988l-80.371-140.111c-26.632-46.429-85.618-62.336-131.748-35.531
	c-46.13,26.806-61.934,86.174-35.301,132.602l80.371,140.112L489.093,341.988z"/>
<polygon style="fill:#FED456;" points="286.744,377.52 453.793,280.449 439.056,254.761 272.009,351.832 "/>
<polygon style="fill:#289E48;" points="286.744,377.52 453.793,280.449 439.056,254.761 272.009,351.832 "/>
<path style="fill:#FFBB4A;" d="M510.639,335.136c2.82,4.915,1.119,11.265-3.78,14.112L319.41,458.174
	c-4.899,2.847-11.214,1.155-14.033-3.76l-18.115-31.58c-2.819-4.915-1.118-11.265,3.781-14.112L478.49,299.797
	c4.899-2.847,11.214-1.155,14.033,3.76L510.639,335.136z"/>
<path style="opacity:0.1;fill:#1E004C;enable-background:new    ;" d="M329.401,440.317l-18.445-32.156
	c-2.095-3.654-1.728-8.08,0.558-11.335l-20.471,11.895c-4.899,2.847-6.6,9.197-3.781,14.112l18.115,31.58
	c2.819,4.915,9.134,6.607,14.033,3.76l23.235-13.502C337.837,446.789,332.075,444.979,329.401,440.317z"/>
<path id="SVGCleanerId_0" style="fill:#FFBB4A;" d="M63.869,379.709c-11.663,20.331-4.743,46.329,15.459,58.067
	c20.2,11.738,46.029,4.773,57.693-15.559c11.663-20.33,4.741-46.329-15.459-58.067C101.36,352.411,75.53,359.378,63.869,379.709z"/>
<g>
	<path id="SVGCleanerId_0_1_" style="fill:#FFBB4A;" d="M63.869,379.709c-11.663,20.331-4.743,46.329,15.459,58.067
		c20.2,11.738,46.029,4.773,57.693-15.559c11.663-20.33,4.741-46.329-15.459-58.067C101.36,352.411,75.53,359.378,63.869,379.709z"
		/>
</g>
<path style="opacity:0.1;fill:#1E004C;enable-background:new    ;" d="M101.987,437.776c-20.201-11.738-27.121-37.736-15.458-58.067
	c5.762-10.045,14.984-16.821,25.276-19.697c-18.135-5.11-38.087,2.528-47.935,19.697c-11.663,20.331-4.743,46.329,15.459,58.067
	c10.22,5.939,21.878,7.083,32.416,4.138C108.405,440.973,105.128,439.601,101.987,437.776z"/>
<path style="fill:#FFBB4A;" d="M22.908,341.988l80.371-140.111c26.632-46.429,85.617-62.336,131.748-35.531
	c46.13,26.806,61.934,86.174,35.301,132.602L189.957,439.06L22.908,341.988z"/>
<polygon style="fill:#289E48;" points="225.257,377.52 58.209,280.449 72.945,254.761 239.993,351.832 "/>
<path style="opacity:0.1;fill:#1E004C;enable-background:new    ;" d="M56.424,341.988l80.371-140.111
	c14.842-25.874,39.732-42.263,66.845-47.069c-38.821-6.923-79.507,10.716-100.36,47.069L22.908,341.988l167.049,97.072l8.378-14.607
	L56.424,341.988z"/>
<path style="fill:#FED456;" d="M1.363,335.136c-2.819,4.915-1.118,11.265,3.781,14.112l187.449,108.926
	c4.899,2.847,11.213,1.155,14.033-3.76l18.114-31.58c2.819-4.915,1.118-11.265-3.781-14.112L33.511,299.797
	c-4.899-2.847-11.213-1.155-14.033,3.76L1.363,335.136z"/>
<path style="opacity:0.1;fill:#1E004C;enable-background:new    ;" d="M26.346,350.916l18.579-32.387
	c2.657-4.631,8.338-6.461,13.141-4.464l-24.555-14.268c-4.899-2.847-11.213-1.155-14.033,3.76l-18.116,31.58
	c-2.819,4.915-1.118,11.265,3.781,14.112l21.303,12.379C24.562,358.434,24.384,354.338,26.346,350.916z"/>
<g>
	<path style="fill:#FF9F3D;" d="M459.857,157.542c-1.646,0-3.089-1.106-3.528-2.704c-5.305-19.334-8.995-23.047-28.204-28.386
		c-1.586-0.442-2.686-1.894-2.686-3.551c0-1.659,1.1-3.113,2.686-3.553c19.21-5.338,22.899-9.054,28.204-28.387
		c0.439-1.597,1.882-2.705,3.528-2.705c1.649,0,3.093,1.108,3.531,2.705c5.303,19.334,8.994,23.049,28.204,28.387
		c1.586,0.44,2.685,1.894,2.685,3.553c0,1.658-1.1,3.109-2.685,3.551c-19.21,5.339-22.901,9.052-28.204,28.386
		C462.95,156.436,461.506,157.542,459.857,157.542z"/>
	<path style="fill:#FF9F3D;" d="M40.527,226.234c-1.647,0-3.09-1.106-3.529-2.703c-5.305-19.334-8.995-23.048-28.203-28.387
		c-1.588-0.441-2.688-1.894-2.688-3.551c0-1.659,1.1-3.112,2.688-3.554c19.208-5.338,22.898-9.053,28.203-28.386
		c0.438-1.597,1.882-2.704,3.529-2.704c1.648,0,3.092,1.107,3.53,2.704c5.303,19.333,8.994,23.048,28.204,28.386
		c1.585,0.442,2.685,1.895,2.685,3.554c0,1.658-1.1,3.11-2.685,3.551c-19.21,5.339-22.901,9.053-28.204,28.387
		C43.619,225.128,42.175,226.234,40.527,226.234z"/>
</g>
<g>
	<path style="fill:#EF5A50;" d="M238.698,176.395c-1.198-1.207-1.048-3.004,0.332-3.996l34.976-25.119
		c1.38-0.991,3.49-0.816,4.688,0.39l101.19,101.847c1.198,1.206,0.812,2.451-0.858,2.769l-22.765,4.315
		c-1.67,0.317-3.292,1.943-3.604,3.614l-4.295,22.948c-0.312,1.67-1.548,2.051-2.746,0.846L238.698,176.395z"/>
	<path style="fill:#EF5A50;" d="M273.304,176.395c1.197-1.207,1.048-3.004-0.332-3.996l-34.976-25.119
		c-1.38-0.991-3.49-0.816-4.688,0.39l-101.19,101.847c-1.198,1.206-0.812,2.451,0.858,2.769l22.764,4.315
		c1.67,0.317,3.292,1.943,3.604,3.614l4.295,22.948c0.312,1.67,1.549,2.051,2.747,0.846L273.304,176.395z"/>
</g>
<path style="fill:#C73627;" d="M126.255,216.255c-2.833,0-5.151-2.318-5.151-5.151v-84.232c0-2.833,2.318-5.151,5.151-5.151h65.407
	c2.833,0,6.6,1.809,8.371,4.021l31.414,39.227c1.771,2.211,1.771,5.83,0,8.042l-31.414,39.224c-1.771,2.211-5.538,4.021-8.371,4.021
	h-65.407V216.255z"/>
<path style="opacity:0.1;fill:#1E004C;enable-background:new    ;" d="M149.481,211.104v-84.232c0-2.833,2.318-5.151,5.151-5.151
	h-28.377c-2.833,0-5.151,2.318-5.151,5.151v84.232c0,2.833,2.318,5.151,5.151,5.151h28.377
	C151.799,216.255,149.481,213.937,149.481,211.104z"/>
<path style="fill:#EF5A50;" d="M221.998,176.49h-55.557c-4.142,0-7.5-3.358-7.5-7.5s3.358-7.5,7.5-7.5h55.557
	c4.142,0,7.5,3.358,7.5,7.5S226.14,176.49,221.998,176.49z"/>
<path style="fill:#C73627;" d="M385.748,121.721c2.833,0,5.151,2.318,5.151,5.151v84.232c0,2.833-2.318,5.151-5.151,5.151h-65.405
	c-2.832,0-6.599-1.809-8.371-4.021L280.56,173.01c-1.771-2.211-1.771-5.83,0-8.042l31.412-39.227
	c1.772-2.211,5.538-4.021,8.371-4.021L385.748,121.721L385.748,121.721z"/>
<path style="fill:#EF5A50;" d="M345.225,176.49h-55.216c-4.142,0-7.5-3.358-7.5-7.5s3.358-7.5,7.5-7.5h55.216
	c4.142,0,7.5,3.358,7.5,7.5S349.367,176.49,345.225,176.49z"/>
<path style="fill:#FB786E;" d="M298.632,190.484c0,2.833-2.318,5.151-5.151,5.151H218.52c-2.833,0-5.151-2.318-5.151-5.151v-42.993
	c0-2.833,2.318-5.151,5.151-5.151h74.961c2.833,0,5.151,2.318,5.151,5.151V190.484z"/>
<g>
</g>
<g>
</g>
<g>
</g>
<g>
</g>
<g>
</g>
<g>
</g>
<g>
</g>
<g>
</g>
<g>
</g>
<g>
</g>
<g>
</g>
<g>
</g>
<g>
</g>
<g>
</g>
<g>
</g>
</svg>
