<?xml version="1.0" encoding="iso-8859-1"?>
<!-- Generator: Adobe Illustrator 19.0.0, SVG Export Plug-In . SVG Version: 6.00 Build 0)  -->
<svg version="1.1" id="Capa_1" xmlns="http://www.w3.org/2000/svg" xmlns:xlink="http://www.w3.org/1999/xlink" x="0px" y="0px"
	 viewBox="0 0 512.004 512.004" style="enable-background:new 0 0 512.004 512.004;" xml:space="preserve">
<g>
	<path style="fill:#F9BE00;" d="M256,81.103c-22.36,0-40.552-18.191-40.552-40.552S233.64,0,256,0s40.552,18.191,40.552,40.552
		S278.36,81.103,256,81.103z M256,16.324c-13.358,0-24.228,10.868-24.228,24.228S242.641,64.78,256,64.78
		c13.358,0,24.228-10.868,24.228-24.228S269.359,16.324,256,16.324z"/>
	<path style="fill:#F9BE00;" d="M299.256,72.942h-86.533c-11.861,0-21.476,9.615-21.476,21.476v47.094
		c0,11.861,9.615,21.476,21.476,21.476h86.533c11.861,0,21.476-9.615,21.476-21.476V94.417
		C320.732,82.556,311.117,72.942,299.256,72.942z"/>
</g>
<path style="opacity:0.15;enable-background:new    ;" d="M276.139,72.942h-63.288c-11.932,0-21.604,9.672-21.604,21.604v46.84
	c0,11.932,9.672,21.604,21.604,21.604h63.288c11.932,0,21.604-9.672,21.604-21.604V94.545
	C297.742,82.614,288.07,72.942,276.139,72.942z"/>
<circle style="fill:#00B288;" cx="256.002" cy="314.986" r="197.018"/>
<g>
	<path style="fill:#FFFFFF;" d="M299.711,261.613h-24.003l4.645-4.645c3.188-3.189,3.188-8.356,0-11.543
		c-3.189-3.186-8.356-3.186-11.543,0l-4.645,4.645v-24.002c0-4.509-3.653-8.162-8.162-8.162c-4.508,0-8.162,3.653-8.162,8.162
		v24.002l-4.644-4.645c-3.189-3.186-8.356-3.186-11.544,0c-3.188,3.189-3.188,8.356,0,11.543l4.645,4.645h-24.003
		c-4.509,0-8.162,3.653-8.162,8.162c0,4.509,3.653,8.162,8.162,8.162h24.003l-4.645,4.645c-3.188,3.189-3.188,8.356,0,11.543
		c1.594,1.593,3.684,2.39,5.772,2.39c2.088,0,4.178-0.797,5.772-2.39l4.644-4.645v24.003c0,4.509,3.654,8.162,8.162,8.162
		c4.509,0,8.162-3.653,8.162-8.162V289.48l4.645,4.645c1.594,1.593,3.684,2.39,5.772,2.39s4.178-0.797,5.772-2.39
		c3.188-3.189,3.188-8.356,0-11.543l-4.645-4.645h24.003c4.509,0,8.162-3.653,8.162-8.162
		C307.874,265.267,304.22,261.613,299.711,261.613z"/>
	<path style="fill:#FFFFFF;" d="M398.757,317.675h6.569c4.509,0,8.162-3.653,8.162-8.162s-3.653-8.162-8.162-8.162h-6.569
		l16.971-16.973c3.188-3.189,3.188-8.356,0-11.543c-3.189-3.186-8.356-3.186-11.543,0l-16.973,16.973v-6.568
		c0-4.509-3.653-8.162-8.162-8.162s-8.162,3.653-8.162,8.162v6.567l-16.971-16.971c-3.189-3.185-8.356-3.188-11.544,0
		c-3.188,3.189-3.188,8.356,0,11.543l16.973,16.973h-6.569c-4.509,0-8.162,3.653-8.162,8.162s3.653,8.162,8.162,8.162h6.569
		l-16.973,16.973c-3.188,3.189-3.188,8.356,0,11.543c1.594,1.593,3.684,2.39,5.772,2.39c2.088,0,4.178-0.798,5.772-2.39
		l16.971-16.971v6.567c0,4.509,3.653,8.162,8.162,8.162s8.162-3.653,8.162-8.162v-6.568l16.973,16.973
		c1.594,1.593,3.683,2.39,5.772,2.39c2.088,0,4.178-0.798,5.772-2.39c3.188-3.189,3.188-8.356,0-11.543L398.757,317.675z"/>
	<path style="fill:#FFFFFF;" d="M152.66,317.675h6.569c4.509,0,8.162-3.653,8.162-8.162s-3.653-8.162-8.162-8.162h-6.569
		l16.971-16.973c3.188-3.189,3.188-8.356,0-11.543c-3.189-3.186-8.356-3.186-11.543,0l-16.971,16.971v-6.567
		c0-4.509-3.653-8.162-8.162-8.162c-4.509,0-8.162,3.653-8.162,8.162v6.568l-16.972-16.972c-3.189-3.185-8.356-3.188-11.543,0
		c-3.188,3.189-3.188,8.356,0,11.543l16.971,16.973h-6.569c-4.509,0-8.162,3.653-8.162,8.162s3.653,8.162,8.162,8.162h6.569
		l-16.97,16.972c-3.188,3.189-3.188,8.356,0,11.543c1.594,1.593,3.684,2.39,5.772,2.39c2.088,0,4.178-0.798,5.772-2.39
		l16.972-16.973v6.568c0,4.509,3.653,8.162,8.162,8.162c4.508,0,8.162-3.653,8.162-8.162v-6.567l16.971,16.971
		c1.594,1.593,3.683,2.39,5.772,2.39c2.088,0,4.178-0.798,5.772-2.39c3.188-3.189,3.188-8.356,0-11.543L152.66,317.675z"/>
</g>
<path style="fill:#F9BE00;" d="M427.612,380.448c-31.462,54.492-82.943,54.492-114.405,0c-31.46-54.495-82.943-54.495-114.404,0
	c-31.463,54.492-82.944,54.492-114.404,0c-6.466-11.2-13.78-20.09-21.589-26.683c18.015,90.236,97.658,158.234,193.192,158.234
	c95.531,0,175.172-67.994,193.19-158.226C441.385,360.365,434.075,369.253,427.612,380.448z"/>
<path style="fill:#FF6D68;" d="M366.784,424.064c-20.309,35.177-53.543,35.177-73.854,0c-20.309-35.178-53.543-35.178-73.854,0
	c-20.31,35.177-53.543,35.177-73.854,0c-16.819-29.133-42.497-34.114-62.363-14.994c33.392,61.318,98.406,102.931,173.14,102.931
	c74.736,0,139.751-41.614,173.142-102.934C409.277,389.952,383.602,394.934,366.784,424.064z"/>
<path style="fill:#00945E;" d="M256,117.965c-56.5,0-107.438,23.789-143.363,61.891c11.903,1.698,23.53,10.369,32.586,26.055
	c20.31,35.177,53.543,35.177,73.854,0c20.31-35.179,53.543-35.179,73.854,0c20.31,35.177,53.545,35.177,73.854,0
	c9.054-15.683,20.679-24.354,32.58-26.054C363.438,141.756,312.5,117.965,256,117.965z"/>
<path style="opacity:0.15;enable-background:new    ;" d="M358.848,146.916c17.789,20.613,31.306,44.203,37.216,67.447
	c38.28,150.549-83.504,272.333-234.053,234.053c-31.322-7.964-63.277-29.738-87.72-57.172C104.099,462.183,174.23,512,256,512
	c108.81,0,197.017-88.208,197.017-197.017C453.017,243.866,415.333,181.557,358.848,146.916z"/>
<g>
</g>
<g>
</g>
<g>
</g>
<g>
</g>
<g>
</g>
<g>
</g>
<g>
</g>
<g>
</g>
<g>
</g>
<g>
</g>
<g>
</g>
<g>
</g>
<g>
</g>
<g>
</g>
<g>
</g>
</svg>
