<svg height="512" viewBox="0 0 64 64" width="512" xmlns="http://www.w3.org/2000/svg"><g id="flat"><path d="m38 17.84v-2.84l-3 2-3-2-3 2-3-2v2.84a21.854 21.854 0 0 0 -10.08 6.16h32.16a21.854 21.854 0 0 0 -10.08-6.16z" fill="#da1c4b"/><path d="m32 61a21.952 21.952 0 0 0 17.75-9h-35.5a21.952 21.952 0 0 0 17.75 9z" fill="#da1c4b"/><path d="m48.08 24h-32.16a21.983 21.983 0 0 0 -1.67 28h35.5a21.983 21.983 0 0 0 -1.67-28z" fill="#f98c96"/><path d="m24 7h16v4h-16z" fill="#b11e48"/><path d="m37 7h-2a3 3 0 0 0 -6 0h-2a5 5 0 0 1 10 0z" fill="#2d75bb"/><path d="m26 11v4l3 2 3-2 3 2 3-2v-4z" fill="#f9bb4b"/><path d="m27 29 3 5 5 1-4 4 2 6-6-3-6 3 2-6-4-4 5-1z" fill="#fcf05a"/><path d="m43 35 3 4 4 1-3 3 1 5-5-3-5 3 1-5-3-3 4-1z" fill="#fcf05a"/><g fill="#f98c96"><path d="m31 56h2v2h-2z"/><path d="m36 55h2v2h-2z"/><path d="m26 55h2v2h-2z"/><path d="m31 19h2v2h-2z"/></g><path d="m15 39h-2a21.783 21.783 0 0 1 4.219-12.625l1.563 1.249a20.093 20.093 0 0 0 -3.782 11.376z" fill="#f4f4e6"/><path d="m13 41h2v2h-2z" fill="#f4f4e6"/><circle cx="39" cy="30" fill="#fcf05a" r="2"/><path d="m51 37h-2a14.318 14.318 0 0 0 -3.707-9.293l1.414-1.414a16.2 16.2 0 0 1 4.293 10.707z" fill="#f4f4e6"/></g></svg>