<?xml version="1.0" encoding="iso-8859-1"?>
<!-- Generator: Adobe Illustrator 19.0.0, SVG Export Plug-In . SVG Version: 6.00 Build 0)  -->
<svg version="1.1" id="Layer_1" xmlns="http://www.w3.org/2000/svg" xmlns:xlink="http://www.w3.org/1999/xlink" x="0px" y="0px"
	 viewBox="0 0 512 512" style="enable-background:new 0 0 512 512;" xml:space="preserve">
<rect x="221.078" y="70.034" style="fill:#BF260E;" width="69.835" height="76.812"/>
<path style="fill:#FFFFFF;" d="M128.208,334.12l-66.001,6.278c2.986,24.759,10.616,48.085,21.977,69.097l51.799,6.678
	L128.208,334.12z"/>
<path style="fill:#E8C67C;" d="M376.016,416.174l51.799-6.678c11.361-21.012,18.991-44.338,21.977-69.097l-54.927-6.278
	C392.997,363.894,386.356,391.746,376.016,416.174z"/>
<path style="fill:#FFFFFF;" d="M84.184,224.066c-11.361,21.012-18.991,44.338-21.977,69.097l66.005,6.278l7.802-82.057
	L84.184,224.066z"/>
<path style="fill:#E8C67C;" d="M449.793,293.164c-2.986-24.759-10.616-48.085-21.977-69.097l-51.829-6.681
	c10.349,24.426,16.999,52.28,18.876,82.057L449.793,293.164z"/>
<g>
	<path style="fill:#F8E19E;" d="M255.999,318.25L117.134,334.12c1.869,29.773,8.511,57.625,18.851,82.052l120.016,15.471
		l120.016-15.471c10.34-24.427,16.981-52.279,18.851-82.052L255.999,318.25z"/>
	<path style="fill:#F8E19E;" d="M394.862,299.442c-1.876-29.777-8.526-57.631-18.876-82.057l-119.986-15.468l-119.986,15.468
		c-10.349,24.426-16.999,52.28-18.876,82.057l138.863,15.871L394.862,299.442z"/>
</g>
<path style="fill:#FF5B42;" d="M126.419,388.957c-17.338,4.402-21.874,18.402-42.235,20.539
	C117.186,470.531,181.742,512,255.999,512L126.419,388.957z"/>
<path style="fill:#BF260E;" d="M385.581,388.957L255.999,512c74.257,0,138.815-41.469,171.815-102.504
	C407.455,407.361,402.919,393.359,385.581,388.957z"/>
<path style="fill:#FF3213;" d="M385.581,388.957c-3.281-0.833-7.016-1.326-11.408-1.326c-29.543,0-29.543,22.149-59.085,22.149
	c-29.544,0-29.544-22.149-59.087-22.149s-29.544,22.149-59.087,22.149c-29.542,0-29.542-22.149-59.085-22.149
	c-4.392,0-8.127,0.493-11.408,1.326C146.915,461.043,197.206,512,256.001,512S365.086,461.044,385.581,388.957z"/>
<path style="fill:#FF5B42;" d="M84.184,224.133c20.361,2.135,24.897,16.135,42.235,20.539l129.58-123.043
	C181.742,121.629,117.186,163.097,84.184,224.133z"/>
<path style="fill:#BF260E;" d="M255.999,121.629l129.58,123.043c17.338-4.402,21.874-18.402,42.235-20.539
	C394.814,163.097,330.257,121.629,255.999,121.629z"/>
<path style="fill:#FF3213;" d="M385.581,244.67c-3.281,0.833-7.016,1.326-11.408,1.326c-29.543,0-29.543-22.149-59.085-22.149
	c-29.544,0-29.544,22.149-59.087,22.149s-29.544-22.149-59.087-22.149c-29.542,0-29.542,22.149-59.085,22.149
	c-4.392,0-8.127-0.493-11.408-1.326c20.494-72.086,70.785-123.043,129.58-123.043S365.086,172.585,385.581,244.67z"/>
<path style="fill:#DF2C10;" d="M62.207,293.164c-0.934,7.743-1.426,15.623-1.426,23.617c0,7.995,0.492,15.874,1.426,23.617h55.391
	l22.152-23.617l-22.147-23.617H62.207z"/>
<path style="fill:#602A18;" d="M449.793,293.164h-55.396l-22.145,23.617l22.151,23.617h55.391
	c0.934-7.743,1.426-15.623,1.426-23.617C451.219,308.786,450.727,300.907,449.793,293.164z"/>
<path style="fill:#BF260E;" d="M394.397,293.164H117.603c-0.669,7.753-1.021,15.644-1.021,23.65c0,7.984,0.351,15.852,1.016,23.584
	h276.805c0.666-7.732,1.016-15.6,1.016-23.584C395.418,308.808,395.066,300.917,394.397,293.164z"/>
<g>
	<path style="fill:#002E22;" d="M152.56,417.818l-8.388-9.93c-1.578-1.868-3.899-2.946-6.344-2.946
		c-2.445,0-4.768,1.078-6.345,2.946l-8.388,9.93c-2.96,3.505-2.518,8.744,0.986,11.704c3.505,2.96,8.745,2.518,11.704-0.986
		l2.043-2.42l2.043,2.42c2.959,3.504,8.199,3.946,11.704,0.986C155.079,426.562,155.521,421.322,152.56,417.818z"/>
	<path style="fill:#002E22;" d="M359.44,417.818l8.388-9.93c1.578-1.868,3.899-2.946,6.344-2.946c2.445,0,4.768,1.078,6.345,2.946
		l8.388,9.93c2.96,3.505,2.518,8.744-0.986,11.704c-3.505,2.96-8.745,2.518-11.704-0.986l-2.043-2.42l-2.043,2.42
		c-2.959,3.504-8.199,3.946-11.704,0.986C356.921,426.562,356.479,421.322,359.44,417.818z"/>
	<path style="fill:#002E22;" d="M270.733,417.818l-8.388-9.93c-1.578-1.868-3.899-2.946-6.345-2.946
		c-2.445,0-4.767,1.078-6.344,2.946l-8.388,9.93c-2.96,3.505-2.518,8.744,0.986,11.704c3.505,2.96,8.745,2.518,11.704-0.986
		l2.043-2.42l2.043,2.42c2.959,3.504,8.199,3.946,11.704,0.986C273.252,426.562,273.693,421.322,270.733,417.818z"/>
	<path style="fill:#002E22;" d="M152.56,215.744l-8.388,9.93c-1.578,1.868-3.899,2.946-6.344,2.946
		c-2.445,0-4.768-1.078-6.345-2.946l-8.388-9.93c-2.96-3.505-2.518-8.744,0.986-11.704c3.505-2.96,8.745-2.518,11.704,0.986
		l2.043,2.42l2.043-2.42c2.959-3.504,8.199-3.946,11.704-0.986C155.079,206.999,155.521,212.239,152.56,215.744z"/>
	<path style="fill:#002E22;" d="M359.44,215.744l8.388,9.93c1.578,1.868,3.899,2.946,6.344,2.946c2.445,0,4.768-1.078,6.345-2.946
		l8.388-9.93c2.96-3.505,2.518-8.744-0.986-11.704c-3.505-2.96-8.745-2.518-11.704,0.986l-2.043,2.42l-2.043-2.42
		c-2.959-3.504-8.199-3.946-11.704-0.986C356.921,206.999,356.479,212.239,359.44,215.744z"/>
	<path style="fill:#002E22;" d="M270.733,215.744l-8.388,9.93c-1.578,1.868-3.899,2.946-6.345,2.946
		c-2.445,0-4.767-1.078-6.344-2.946l-8.388-9.93c-2.96-3.505-2.518-8.744,0.986-11.704c3.505-2.96,8.745-2.518,11.704,0.986
		l2.043,2.42l2.043-2.42c2.959-3.504,8.199-3.946,11.704-0.986C273.252,206.999,273.693,212.239,270.733,215.744z"/>
</g>
<path style="fill:#F8E19E;" d="M287.828,66.038h-16.612v-34.21c0-8.39-6.826-15.216-15.216-15.216
	c-8.39,0-15.216,6.826-15.216,15.216v34.21h-16.612v-34.21C224.173,14.277,238.451,0,256.001,0c17.55,0,31.828,14.278,31.828,31.828
	V66.038z"/>
<path style="fill:#D5AD56;" d="M210.35,49.094v34.163c3.444,5.81,8.969,9.601,15.214,9.601s11.77-3.792,15.219-9.601
	c3.444,5.81,8.969,9.601,15.214,9.601c6.245,0,11.78-3.792,15.219-9.601l11.074-17.081l-11.074-17.081H210.35V49.094z"/>
<path style="fill:#D1964A;" d="M271.217,49.094v34.163c3.444,5.81,8.964,9.601,15.214,9.601c6.246,0,11.77-3.792,15.22-9.601V49.094
	H271.217z"/>
<g>
</g>
<g>
</g>
<g>
</g>
<g>
</g>
<g>
</g>
<g>
</g>
<g>
</g>
<g>
</g>
<g>
</g>
<g>
</g>
<g>
</g>
<g>
</g>
<g>
</g>
<g>
</g>
<g>
</g>
</svg>
